# xmcd
#
# Track frame offsets: 
#        150
#        22239
#        38871
#        54860
#        68637
#        79773
#        91895
#        105384
#        119838
#        133760
#        149787
#        164545
#        178440
#        191957
#
# Disc length: 2759 seconds
#
# Revision: 0
# Processed by: cddbd v1.5.2PL0 Copyright (c) Steve Scherf et al.
# Submitted via: ExactAudioCopy v0.99pb5
#
DISCID=d50ac50e
DTITLE=Mayck and Lyan - Acústico and Ao Vivo
DYEAR=2010
DGENRE=Sertanejo
TTITLE0=No Som da Viola Sangue Novo
TTITLE1=Fala que o Seu Amor Sou Eu
TTITLE2=Se Tudo Acabou
TTITLE3=Pede pra Voltar
TTITLE4=Opostos se Atraem
TTITLE5=Diz que Tá Arrependida
TTITLE6=Sem Você Fico sem Mim
TTITLE7=Cara de Santa
TTITLE8=Se Rolar a Gente Fica
TTITLE9=Não Me Leve a Mal
TTITLE10=Dor de Dente e Mulher Feia
TTITLE11=No Pomteio da Viola
TTITLE12=Noite Encantada
TTITLE13=Vacilou, Virou Ex
EXTD=
EXTT0=
EXTT1=
EXTT2=
EXTT3=
EXTT4=
EXTT5=
EXTT6=
EXTT7=
EXTT8=
EXTT9=
EXTT10=
EXTT11=
EXTT12=
EXTT13=
PLAYORDER=
